<?xml version="1.0" encoding="iso-8859-1"?>
<!-- Generator: Adobe Illustrator 19.0.0, SVG Export Plug-In . SVG Version: 6.00 Build 0)  -->
<svg version="1.1" id="Capa_1" xmlns="http://www.w3.org/2000/svg" xmlns:xlink="http://www.w3.org/1999/xlink" x="0px" y="0px"
	 viewBox="0 0 512.1 512.1" style="enable-background:new 0 0 512.1 512.1;" xml:space="preserve">
<g>
	<path style="fill:#008DAF;" d="M504.5,151.5c-4.1,0-7.5-3.4-7.5-7.5V42.2h-21.4c-4.1,0-7.5-3.4-7.5-7.5s3.4-7.5,7.5-7.5h23.9
		c6.9,0,12.6,5.6,12.6,12.6V144C512,148.1,508.6,151.5,504.5,151.5z"/>
	<path style="fill:#008DAF;" d="M459.5,461.6c-4.1,0-7.5-3.4-7.5-7.5v-20.5c0-4.1,3.4-7.5,7.5-7.5s7.5,3.4,7.5,7.5v20.5
		C467,458.3,463.6,461.6,459.5,461.6z"/>
</g>
<path style="fill:#FF3D6C;" d="M30.3,444.8V487c0,2.1,1.2,4.1,3.1,5c0.9,0.4,1.8,0.7,2.7,0.7c1.2,0,2.3-0.3,3.3-1l21.7-14.5
	l24.3,15.1c1,0.6,2,0.9,3.1,0.9c1,0,1.9-0.2,2.8-0.7c1.9-1,3-2.9,3-5v-42.6h-64V444.8z"/>
<path style="fill:#B2B4CE;" d="M394.5,18.9h-52.9v431.4h52.9c3.8,0,6.9-3.1,6.9-6.8V25.7C401.4,21.9,398.3,18.9,394.5,18.9z"/>
<path style="fill:#CFCCD6;" d="M368.1,18.9h-26.5v431.4h26.5c3.8,0,6.9-3.1,6.9-6.8V25.7C375.1,21.9,372,18.9,368.1,18.9z"/>
<path style="fill:#82DDAB;" d="M346.7,18.9c-2.8,0-5.1,2.3-5.1,5.1v69.8c0,2.8,2.3,5.1,5.1,5.1H401c2.8,0,5.1-2.3,5.1-5.1V24
	c0-2.8-2.3-5.1-5.1-5.1H346.7z"/>
<g style="opacity:0.1;">
	<path d="M363.9,93.8V24c0-2.8,2.3-5.1,5.1-5.1h-22.3c-2.8,0-5.1,2.3-5.1,5.1v69.8c0,2.8,2.3,5.1,5.1,5.1H369
		C366.2,98.8,363.9,96.6,363.9,93.8z"/>
</g>
<path style="fill:#FFCB00;" d="M346.7,164.9c-2.8,0-5.1,2.3-5.1,5.1v69.8c0,2.8,2.3,5.1,5.1,5.1H401c2.8,0,5.1-2.3,5.1-5.1V170
	c0-2.8-2.3-5.1-5.1-5.1H346.7z"/>
<g style="opacity:0.1;">
	<path d="M363.9,239.8V170c0-2.8,2.3-5.1,5.1-5.1h-22.3c-2.8,0-5.1,2.3-5.1,5.1v69.8c0,2.8,2.3,5.1,5.1,5.1H369
		C366.2,244.8,363.9,242.5,363.9,239.8z"/>
</g>
<path style="fill:#FF5E97;" d="M346.7,93.8c-2.8,0-5.1,2.3-5.1,5.1v69.8c0,2.8,2.3,5.1,5.1,5.1H401c2.8,0,5.1-2.3,5.1-5.1V98.9
	c0-2.8-2.3-5.1-5.1-5.1H346.7z"/>
<g style="opacity:0.1;">
	<path d="M363.9,168.7V98.9c0-2.8,2.3-5.1,5.1-5.1h-22.3c-2.8,0-5.1,2.3-5.1,5.1v69.8c0,2.8,2.3,5.1,5.1,5.1H369
		C366.2,173.8,363.9,171.5,363.9,168.7z"/>
</g>
<path style="fill:#F6B245;" d="M340.3,18.9H13.9C6.3,18.9,0,25.1,0,32.6v404c0,7.5,6.3,13.7,13.9,13.7h326.4c3.8,0,6.9-3.1,6.9-6.8
	V25.7C347.2,21.9,344.1,18.9,340.3,18.9z"/>
<path style="fill:#FFFFFF;" d="M155.4,270.4c-2.8,0-5-2.2-5-5v-62.9c0-2.4-1.9-4.3-4.3-4.3c-19.4-0.3-35.3-16.2-35.3-35.4
	c0-19.5,16.1-35.4,35.9-35.4c9.6,0,18.7,3.7,25.5,10.4c0.8,0.8,2,1.3,3.1,1.3c1.2,0,2.3-0.4,3.1-1.3c6.8-6.7,15.8-10.4,25.5-10.4
	s18.7,3.7,25.5,10.4c0.8,0.8,1.9,1.3,3.1,1.3c1.1,0,2.3-0.5,3.1-1.3c6.8-6.7,15.8-10.4,25.5-10.4c19.8,0,35.9,15.9,35.9,35.4
	c0,19.2-15.8,35-35.3,35.4c-2.4,0-4.3,2-4.3,4.3v62.9c0,2.8-2.2,5-5,5H155.4z"/>
<g style="opacity:0.1;">
	<path d="M161.4,192.1c0-2.4-1.9-4.3-4.3-4.3c-19.4-0.3-35.3-16.2-35.3-35.4c0-7.3,2.3-14.1,6.1-19.7c-10.2,6.2-17.1,17.4-17.1,30.1
		c0,19.2,15.8,35,35.3,35.4c2.4,0,4.3,2,4.3,4.3v62.9c0,2.8,2.2,5,5,5h6L161.4,192.1L161.4,192.1z"/>
</g>
<path style="fill:#F39600;" d="M52.9,18.9h-39C6.3,18.9,0,25.1,0,32.6v404c0,7.5,6.3,13.7,13.9,13.7h39
	C52.9,450.3,52.9,18.9,52.9,18.9z"/>
<g style="opacity:0.1;">
	<path d="M21.8,436.6v-404c0-7.5,6.3-13.7,13.9-13.7H13.9C6.3,18.9,0,25.1,0,32.6v404c0,7.5,6.3,13.7,13.9,13.7h21.8
		C28.1,450.3,21.8,444.1,21.8,436.6z"/>
</g>
<g>
	<path style="fill:#FAE4C8;" d="M194.1,270.4v-43.1c0-4.1-3.4-7.5-7.5-7.5s-7.5,3.4-7.5,7.5v43.1H194.1z"/>
	<path style="fill:#FAE4C8;" d="M228.8,270.4v-43.1c0-4.1-3.4-7.5-7.5-7.5s-7.5,3.4-7.5,7.5v43.1H228.8z"/>
</g>
<g>
	<path style="fill:#F39600;" d="M259.2,326.4H148.7c-4.1,0-7.5-3.4-7.5-7.5s3.4-7.5,7.5-7.5h110.5c4.1,0,7.5,3.4,7.5,7.5
		S263.3,326.4,259.2,326.4z"/>
	<path style="fill:#F39600;" d="M241,361h-74.1c-4.1,0-7.5-3.4-7.5-7.5s3.4-7.5,7.5-7.5H241c4.1,0,7.5,3.4,7.5,7.5
		S245.1,361,241,361z"/>
</g>
<rect x="439" y="133.2" style="fill:#F6B142;" width="41" height="255.5"/>
<path style="fill:#299FBC;" d="M484.3,133.6c0,2.8-2.3,5.1-5.1,5.1h-39.5c-2.8,0-5.1-2.3-5.1-5.1V24.5c0-2.8,2.3-5.1,5.1-5.1h39.5
	c2.8,0,5.1,2.3,5.1,5.1V133.6L484.3,133.6z"/>
<g style="opacity:0.1;">
	<path d="M456.4,133.6V24.5c0-2.8,2.3-5.1,5.1-5.1h-21.7c-2.8,0-5.1,2.3-5.1,5.1v109.1c0,2.8,2.3,5.1,5.1,5.1h21.7
		C458.7,138.7,456.4,136.4,456.4,133.6z"/>
</g>
<path style="fill:#299FBC;" d="M452.4,435.9c-1,0-1.9-0.5-2.4-1.3c-6.2-9.1-10.3-26.2-11-45.8c0-0.8,0.3-1.6,0.8-2.2
	c0.6-0.6,1.3-0.9,2.1-0.9H477c0.8,0,1.6,0.3,2.1,0.9s0.9,1.4,0.8,2.2c-0.7,19.6-4.8,36.8-11,45.8c-0.6,0.8-1.5,1.3-2.4,1.3H452.4z"
	/>
<g>
	<path style="fill:#008DAF;" d="M459.5,322.1c-4.1,0-7.5-3.4-7.5-7.5V243c0-4.1,3.4-7.5,7.5-7.5s7.5,3.4,7.5,7.5v71.7
		C467,318.8,463.6,322.1,459.5,322.1z"/>
	<path style="fill:#008DAF;" d="M459.5,222.7c-4.1,0-7.5-3.4-7.5-7.5v-7.7c0-4.1,3.4-7.5,7.5-7.5s7.5,3.4,7.5,7.5v7.7
		C467,219.3,463.6,222.7,459.5,222.7z"/>
</g>
<g>
</g>
<g>
</g>
<g>
</g>
<g>
</g>
<g>
</g>
<g>
</g>
<g>
</g>
<g>
</g>
<g>
</g>
<g>
</g>
<g>
</g>
<g>
</g>
<g>
</g>
<g>
</g>
<g>
</g>
</svg>
